<?xml version="1.0" standalone="no"?>
<!DOCTYPE svg PUBLIC "-//W3C//DTD SVG 20010904//EN"
 "http://www.w3.org/TR/2001/REC-SVG-20010904/DTD/svg10.dtd">
<svg version="1.0" xmlns="http://www.w3.org/2000/svg"
 width="324.000000pt" height="324.000000pt" viewBox="0 0 324.000000 324.000000"
 preserveAspectRatio="xMidYMid meet">
<metadata>
Created by potrace 1.11, written by Peter Selinger 2001-2013
</metadata>
<g transform="translate(0.000000,324.000000) scale(0.100000,-0.100000)"
fill="#000000" stroke="none">
<path d="M1558 2954 c-3 -3 -142 -5 -309 -5 -182 0 -322 -4 -349 -10 -25 -6
-57 -12 -71 -12 -15 -1 -25 -7 -23 -12 3 -6 -11 -19 -30 -29 -42 -22 -113 -92
-121 -117 -4 -11 -10 -19 -14 -19 -4 0 -13 -18 -20 -40 -9 -29 -17 -40 -32
-40 -30 0 -140 -39 -171 -61 -15 -11 -34 -17 -40 -13 -7 4 -10 4 -6 -1 4 -4
-12 -29 -35 -54 -46 -49 -92 -135 -103 -191 -4 -19 -7 -90 -8 -157 0 -76 -5
-123 -11 -123 -7 0 -7 -3 0 -8 14 -10 14 -292 0 -284 -5 3 -5 -1 1 -9 7 -8 14
-34 17 -59 2 -25 7 -57 11 -72 4 -16 3 -28 -1 -28 -12 0 -16 -80 -17 -300 0
-122 -4 -198 -11 -202 -6 -5 -6 -8 0 -8 6 0 11 -36 11 -85 2 -106 18 -171 55
-230 16 -25 27 -51 23 -56 -3 -5 -1 -8 4 -7 13 4 92 -69 84 -78 -4 -4 -2 -4 4
-1 6 3 24 -2 40 -12 36 -22 89 -40 127 -43 32 -3 38 -9 57 -58 8 -19 22 -44
32 -55 10 -10 16 -26 13 -34 -3 -9 -3 -12 1 -8 4 4 28 -13 55 -38 95 -89 159
-105 417 -105 160 0 202 -3 196 -12 -6 -10 -5 -10 7 -2 12 10 195 26 279 24
401 -7 520 -13 513 -23 -5 -9 -3 -9 8 0 9 7 53 13 107 14 96 2 146 14 203 49
19 11 42 23 51 26 9 3 19 13 22 21 3 8 11 11 18 7 7 -4 10 -4 6 1 -4 4 7 24
24 43 17 20 40 56 51 81 24 55 43 75 62 67 8 -3 17 -1 21 5 3 6 12 8 20 5 8
-3 14 -2 14 3 0 4 18 13 40 20 40 12 147 106 169 149 7 12 17 20 23 16 6 -4 8
-3 5 3 -4 6 0 26 8 45 8 19 17 57 21 84 3 27 10 57 15 66 5 10 5 19 0 23 -13
7 -10 45 4 45 6 0 7 3 0 8 -6 4 -10 101 -11 252 0 161 -4 257 -12 280 -9 26
-9 44 -1 70 6 19 12 134 14 255 2 121 4 222 5 225 1 3 1 10 0 15 -8 33 -7 55
3 55 8 0 8 3 2 8 -5 4 -11 21 -11 37 -4 81 -9 143 -13 139 -5 -5 -53 87 -54
103 0 7 -5 9 -10 6 -6 -4 -8 0 -4 10 3 9 2 16 -2 14 -5 -1 -28 16 -52 38 -57
53 -124 84 -217 101 -17 3 -16 1 -40 54 -39 81 -78 125 -152 168 -25 14 -48
31 -52 37 -4 5 -8 6 -8 2 0 -4 -10 -2 -22 5 -17 10 -112 14 -365 18 -187 3
-339 2 -337 -1 6 -10 -65 -19 -97 -12 -16 3 -26 9 -23 14 6 10 0 12 -8 3z
m-418 -214 c89 4 260 4 260 0 0 -14 -36 -96 -44 -102 -8 -5 -7 -8 0 -8 8 0 9
-13 4 -42 -5 -24 -6 -46 -4 -50 2 -4 0 -9 -6 -13 -6 -4 -7 -11 -4 -17 4 -6 8
-30 9 -52 3 -58 15 -124 31 -162 8 -18 14 -35 14 -38 0 -2 -61 -5 -135 -5
l-135 -2 -1 43 c-1 24 -2 48 -3 53 -6 31 -20 72 -29 83 -5 6 -6 12 -2 12 5 0
0 9 -10 20 -10 11 -14 20 -9 20 25 0 -125 125 -182 152 l-65 30 23 23 c49 47
100 62 202 57 33 -1 72 -2 86 -2z m960 0 c14 1 36 2 50 4 14 1 37 -2 53 -6 15
-3 27 -3 27 2 0 4 15 6 33 4 17 -1 36 -3 40 -3 5 -1 5 -5 2 -11 -3 -6 1 -7 9
-4 20 8 88 -34 80 -48 -4 -6 -2 -8 4 -4 6 3 13 2 16 -3 4 -5 -11 -15 -31 -22
-44 -14 -100 -44 -120 -64 -8 -8 -22 -20 -31 -27 -58 -44 -122 -178 -122 -257
l0 -49 -134 -1 -135 -2 19 39 c40 83 46 279 12 390 -11 33 -18 62 -17 64 2 2
52 2 112 0 59 -1 119 -2 133 -2z m-424 -135 c8 -26 9 -35 0 -36 -7 0 -6 -2 2
-6 14 -5 17 -119 3 -127 -4 -3 -6 -17 -3 -31 2 -15 0 -25 -7 -25 -7 0 -10 -4
-7 -9 3 -4 -5 -23 -19 -40 -22 -31 -24 -32 -34 -13 -6 11 -7 23 -3 27 4 5 2 5
-4 2 -20 -12 -37 47 -39 138 -3 92 13 162 35 157 6 -1 9 2 5 8 -4 6 -1 18 6
26 10 13 15 11 32 -11 11 -13 26 -41 33 -60z m-1084 -217 c2 -36 6 -64 9 -62
4 2 10 -8 14 -24 11 -47 72 -129 127 -171 57 -43 136 -80 155 -74 20 7 27 -20
28 -119 1 -85 -1 -98 -15 -92 -81 35 -99 38 -225 37 -143 -1 -195 -5 -195 -14
0 -4 -8 -9 -17 -13 -10 -3 -24 -9 -31 -12 -17 -8 -16 426 1 483 14 43 83 116
104 109 8 -3 11 -2 8 3 -4 7 22 21 32 16 1 0 3 -30 5 -67z m271 22 c21 -17 51
-72 61 -112 5 -21 3 -28 -9 -28 -8 0 -15 5 -15 10 0 6 -6 9 -12 8 -7 -2 -12 2
-11 9 2 7 -3 10 -11 7 -17 -6 -58 56 -60 91 0 14 -4 25 -8 25 -4 0 -5 7 -2 15
6 15 24 8 67 -25z m1590 28 c10 -30 -35 -124 -53 -113 -6 3 -7 -1 -4 -9 6 -15
-6 -21 -29 -17 -5 1 -6 -2 -3 -7 3 -5 -6 -14 -20 -21 -32 -14 -32 -15 -28 12
10 67 35 110 81 142 43 28 50 30 56 13z m249 0 c45 -26 61 -44 84 -92 21 -47
23 -61 24 -278 0 -125 -1 -228 -4 -228 -2 0 -23 9 -47 19 -24 11 -47 17 -51
15 -4 -3 -8 -1 -8 4 0 5 -11 8 -25 7 -14 -2 -25 0 -25 3 0 11 -159 4 -222 -9
-32 -6 -61 -12 -65 -12 -5 0 -14 -7 -21 -14 -7 -7 -17 -13 -20 -13 -4 0 -7 43
-7 95 0 52 3 95 8 95 4 0 6 4 3 9 -6 8 76 36 102 34 6 0 12 4 12 9 0 6 7 7 16
4 8 -3 12 -2 9 4 -6 9 34 36 48 32 4 -1 7 4 7 11 0 12 39 43 51 40 4 -1 6 5 5
15 0 10 5 16 14 14 8 -2 12 0 8 4 -4 4 1 23 12 43 38 70 46 97 48 159 2 45 9
50 44 30z m-1002 -390 c17 -1 30 -6 30 -11 0 -4 6 -5 13 0 16 10 28 11 55 1
12 -4 22 -4 22 0 0 4 18 7 40 7 22 0 40 -2 40 -5 0 -3 9 -6 20 -6 11 0 20 3
20 6 0 4 59 4 115 -2 6 0 15 1 20 2 31 8 33 -2 35 -172 2 -210 3 -218 14 -218
4 0 6 -10 3 -22 -3 -13 -8 -34 -11 -48 -3 -14 -6 -106 -7 -206 l-1 -181 -31 3
c-18 2 -38 6 -44 9 -7 2 -13 1 -13 -3 0 -9 -94 -7 -109 3 -6 3 -11 2 -11 -2 0
-10 -41 -10 -58 1 -7 4 -12 4 -12 -1 0 -4 -38 -9 -85 -10 -46 -1 -92 -6 -102
-11 -9 -6 -26 -6 -38 -2 -12 4 -34 10 -51 12 -16 1 -32 7 -36 13 -5 7 -8 7 -8
0 0 -11 -50 -12 -68 -1 -7 4 -12 4 -12 -1 0 -6 -223 -9 -286 -4 -8 1 -12 56
-13 178 0 100 -6 192 -12 212 -9 25 -8 43 1 70 7 21 12 108 13 210 l2 175 120
0 c66 1 126 -3 133 -8 7 -5 12 -5 12 0 0 5 32 9 70 9 39 0 89 4 113 10 23 6
52 8 65 3 12 -4 36 -9 52 -10z m-905 -378 c51 -20 85 -60 50 -60 -8 0 -15 -4
-15 -8 0 -28 -239 -47 -241 -19 0 9 -2 9 -5 0 -4 -9 -16 -6 -42 8 -20 12 -40
24 -44 28 -12 11 57 51 101 59 59 10 160 6 196 -8z m1879 1 c36 -14 79 -48 69
-54 -68 -41 -82 -44 -177 -46 -63 -2 -103 2 -112 10 -8 6 -14 8 -14 5 0 -4
-13 1 -30 11 -16 9 -30 22 -30 28 0 18 88 58 116 52 13 -2 26 -2 28 2 6 10
118 4 150 -8z m-2210 -276 c8 -9 18 -15 21 -15 3 1 24 -2 48 -6 23 -4 45 -7
50 -6 4 1 7 -2 7 -6 0 -5 7 -9 15 -9 8 0 15 4 15 8 0 5 11 4 24 -1 13 -5 26
-6 29 -4 3 3 36 7 74 9 38 2 81 9 96 14 15 6 27 8 27 5 0 -3 10 2 22 10 12 9
26 16 30 16 11 0 6 -23 -7 -32 -6 -5 -6 -8 1 -8 12 0 13 -38 1 -56 -3 -6 -3
-14 1 -18 4 -4 7 -29 7 -54 l0 -47 -52 -16 c-108 -34 -206 -121 -253 -225 -22
-48 -28 -72 -30 -129 -1 -22 -4 -34 -7 -27 -2 6 -9 10 -14 6 -13 -8 -70 29
-94 62 -26 35 -49 98 -32 87 9 -5 9 -4 0 8 -15 18 -19 449 -4 449 5 0 16 -7
25 -15z m1911 -11 c11 -4 29 -9 40 -11 11 -2 27 -6 35 -10 8 -3 26 -5 40 -5
202 9 221 11 265 31 26 12 49 21 52 21 2 0 3 -103 3 -230 -1 -129 -5 -230 -10
-230 -5 0 -7 -6 -4 -14 3 -8 0 -17 -5 -21 -6 -3 -9 -10 -6 -15 5 -8 -69 -89
-83 -91 -4 0 -15 -2 -25 -4 -13 -2 -17 3 -16 23 2 62 -43 167 -95 227 -20 22
-36 44 -36 48 0 5 -4 5 -10 2 -5 -3 -10 -2 -10 2 0 7 -35 27 -133 75 -11 5
-21 7 -24 4 -3 -3 -15 0 -26 5 -16 9 -17 13 -6 20 8 5 9 9 4 9 -14 0 -14 123
0 132 6 5 4 8 -5 8 -13 0 -13 1 0 10 9 6 11 10 3 10 -7 0 -10 7 -7 15 4 10 11
11 22 5 10 -5 26 -12 37 -16z m-980 -411 c-46 -116 -54 -316 -16 -417 6 -15 8
-32 5 -38 -4 -7 -2 -8 4 -4 7 4 12 2 12 -3 0 -13 11 -13 -246 -13 -231 0 -244
3 -305 62 -29 27 -29 29 -10 35 12 3 26 3 32 -1 7 -4 9 -3 5 4 -3 6 4 14 16
17 13 4 38 18 56 32 17 13 37 21 42 18 6 -4 9 -1 8 7 -2 7 3 12 10 10 8 -1 11
2 8 7 -3 5 1 15 10 22 8 7 27 32 41 56 13 24 28 41 31 39 4 -2 8 6 8 17 1 12
7 40 13 62 6 22 11 55 11 73 l0 32 136 0 c126 0 136 -1 129 -17z m715 -25 c0
-52 31 -136 71 -195 34 -49 110 -113 158 -132 17 -8 31 -18 31 -23 0 -5 4 -7
9 -4 5 4 19 2 31 -2 21 -8 20 -8 -9 -34 -63 -57 -77 -60 -302 -61 -115 -1
-209 1 -209 5 0 4 -11 3 -25 -2 l-24 -9 17 37 c9 20 19 39 22 42 16 16 16 305
0 325 -7 8 -10 15 -7 15 3 0 -1 16 -9 35 -7 19 -14 36 -14 39 0 2 59 5 130 5
l130 1 0 -42z m233 21 c50 -26 99 -88 109 -139 3 -16 -3 -20 -25 -20 -29 0
-119 111 -103 127 3 3 1 14 -5 24 -11 22 -6 23 24 8z m-1421 -6 c-6 -2 -10 -9
-6 -14 8 -13 -6 -50 -17 -44 -5 3 -6 -1 -3 -9 7 -19 -61 -86 -87 -86 -15 0
-16 5 -9 29 13 45 30 72 42 65 6 -4 8 -3 4 4 -8 13 22 44 35 36 5 -3 9 -2 8 3
-3 18 2 23 24 22 12 0 16 -3 9 -6z m737 -73 c12 -22 19 -44 16 -50 -3 -5 -2
-10 4 -10 6 0 9 -35 9 -87 -1 -87 -14 -135 -47 -174 -13 -16 -15 -16 -31 -1
-30 29 -51 110 -49 186 2 72 25 150 41 140 5 -3 8 -2 7 3 -8 47 22 42 50 -7z"/>
</g>
</svg>
